<svg width="72" height="73" viewBox="0 0 72 73" fill="none" xmlns="http://www.w3.org/2000/svg">
<g filter="url(#filter0_bd_1608_385)">
<g filter="url(#filter1_b_1608_385)">
<rect x="7" y="7" width="58" height="58" rx="29" fill="#0D0D0D" fill-opacity="0.5"/>
<rect x="7" y="7" width="58" height="58" rx="29" fill="#8C8C8C" style="mix-blend-mode:color-dodge"/>
<g filter="url(#filter2_b_1608_385)">
<path fill-rule="evenodd" clip-rule="evenodd" d="M36.0807 15.2001H35.9183C35.6041 15.2001 35.3496 14.9456 35.3496 14.6314V10.5687C35.3496 10.2544 35.6041 10 35.9183 10H36.0807C36.3949 10 36.6494 10.2544 36.6494 10.5687V14.6314C36.6494 14.9456 36.3949 15.2001 36.0807 15.2001ZM36.0807 61.9999H35.9183C35.6041 61.9999 35.3496 61.7454 35.3496 61.4312V57.3685C35.3496 57.0543 35.6041 56.7998 35.9183 56.7998H36.0807C36.3949 56.7998 36.6494 57.0543 36.6494 57.3685V61.4312C36.6494 61.7454 36.3949 61.9999 36.0807 61.9999ZM25.529 18.0271L25.6695 17.9454C25.942 17.7888 26.0351 17.4413 25.8774 17.1688L23.8466 13.6511C23.6899 13.3786 23.3415 13.2856 23.07 13.4422L22.9294 13.5239C22.657 13.6806 22.5639 14.029 22.7206 14.3005L24.7524 17.8192C24.909 18.0907 25.2565 18.1837 25.529 18.0271ZM49.0699 58.4757L48.9294 58.5574C48.6569 58.714 48.3094 58.621 48.1528 58.3494L46.121 54.8308C45.9643 54.5593 46.0573 54.2108 46.3298 54.0542L46.4704 53.9725C46.7419 53.8159 47.0903 53.9089 47.247 54.1814L49.2778 57.6991C49.4354 57.9715 49.3424 58.319 49.0699 58.4757ZM58.4762 49.0699L58.5578 48.9294C58.7145 48.6569 58.6214 48.3094 58.3489 48.1518L54.8313 46.121C54.5588 45.9643 54.2113 46.0574 54.0537 46.3289L53.973 46.4704C53.8154 46.7419 53.9094 47.0894 54.1809 47.247L57.6995 49.2779C57.9711 49.4355 58.3195 49.3424 58.4762 49.0699ZM15.2001 35.9193V36.0817C15.2001 36.3959 14.9456 36.6504 14.6314 36.6504H10.5687C10.2544 36.6504 10 36.3959 10 36.0817V35.9193C10 35.605 10.2544 35.3506 10.5687 35.3506H14.6314C14.9456 35.3506 15.2001 35.605 15.2001 35.9193ZM62.0008 36.0817V35.9193C62.0008 35.605 61.7464 35.3506 61.4321 35.3506H57.3695C57.0552 35.3506 56.8008 35.605 56.8008 35.9193V36.0817C56.8008 36.3959 57.0552 36.6504 57.3695 36.6504H61.4321C61.7464 36.6504 62.0008 36.3959 62.0008 36.0817ZM17.9464 46.3296L18.0281 46.4701C18.1847 46.7426 18.0917 47.09 17.8201 47.2467L14.3015 49.2785C14.03 49.4352 13.6815 49.3421 13.5249 49.0696L13.4432 48.9291C13.2866 48.6576 13.3796 48.3091 13.6521 48.1525L17.1698 46.1216C17.4423 45.964 17.7897 46.0571 17.9464 46.3296ZM58.5574 23.0707L58.4757 22.9301C58.319 22.6576 57.9715 22.5646 57.6991 22.7222L54.1814 24.7531C53.9089 24.9097 53.8159 25.2582 53.9725 25.5297L54.0542 25.6702C54.2108 25.9427 54.5593 26.0357 54.8308 25.8791L58.3494 23.8473C58.621 23.6906 58.714 23.3431 58.5574 23.0707ZM25.529 53.9725L25.6696 54.0542C25.942 54.2108 26.0351 54.5593 25.8775 54.8308L23.8466 58.3494C23.689 58.621 23.3415 58.715 23.07 58.5574L22.9285 58.4767C22.657 58.319 22.5639 57.9715 22.7206 57.6991L24.7524 54.1814C24.9091 53.9089 25.2565 53.8159 25.529 53.9725ZM49.0699 13.5239L48.9294 13.4422C48.6569 13.2856 48.3094 13.3786 48.1518 13.6511L46.121 17.1688C45.9643 17.4413 46.0574 17.7888 46.3289 17.9464L46.4704 18.0271C46.7419 18.1847 47.0894 18.0907 47.247 17.8192L49.2779 14.3005C49.4355 14.029 49.3424 13.6806 49.0699 13.5239ZM30.0225 13.3766L29.8659 13.4184C29.5621 13.5 29.2507 13.3196 29.169 13.0158L28.7911 11.604C28.7095 11.3002 28.8899 10.9878 29.1927 10.9071L29.3494 10.8653C29.6532 10.7837 29.9656 10.9641 30.0463 11.267L30.4251 12.6797C30.5058 12.9835 30.3264 13.295 30.0225 13.3766ZM42.1352 58.5812L41.9785 58.6229C41.6747 58.7046 41.4953 59.016 41.576 59.3198L41.9548 60.7326C42.0355 61.0355 42.3479 61.2159 42.6517 61.1342L42.8083 61.0924C43.1112 61.0117 43.2916 60.6994 43.2099 60.3955L42.8321 58.9837C42.7504 58.6799 42.439 58.4995 42.1352 58.5812ZM19.5122 19.3963L19.3973 19.5112C19.1751 19.7334 18.8153 19.7334 18.5931 19.5112L17.5592 18.4773C17.337 18.2551 17.337 17.8953 17.5592 17.6731L17.6741 17.5582C17.8963 17.3361 18.2561 17.3361 18.4783 17.5582L19.5122 18.5922C19.7344 18.8143 19.7344 19.1742 19.5122 19.3963ZM52.6037 52.4889L52.4888 52.6038C52.2667 52.826 52.2667 53.1858 52.4888 53.408L53.5228 54.4419C53.7449 54.6641 54.1048 54.6641 54.3269 54.4419L54.4418 54.327C54.664 54.1049 54.664 53.745 54.4418 53.5229L53.4079 52.4889C53.1857 52.2668 52.8259 52.2668 52.6037 52.4889ZM13.4182 29.8654L13.3764 30.0221C13.2947 30.3259 12.9833 30.5054 12.6795 30.4247L11.2667 30.0458C10.9639 29.9642 10.7835 29.6528 10.8651 29.349L10.9069 29.1923C10.9886 28.8885 11.3 28.709 11.6038 28.7897L13.0166 29.1686C13.3194 29.2502 13.4998 29.5616 13.4182 29.8654ZM58.6239 41.9775L58.5821 42.1342C58.5005 42.438 58.6809 42.7494 58.9838 42.8311L60.3965 43.2099C60.7003 43.2906 61.0118 43.1112 61.0934 42.8074L61.1352 42.6507C61.2168 42.3469 61.0364 42.0355 60.7336 41.9538L59.3208 41.575C59.017 41.4943 58.7056 41.6737 58.6239 41.9775ZM13.3766 41.9785L13.4184 42.1352C13.5 42.439 13.3196 42.7504 13.0158 42.8321L11.604 43.2099C11.3002 43.2916 10.9878 43.1112 10.9071 42.8083L10.8653 42.6517C10.7837 42.3479 10.9641 42.0355 11.267 41.9548L12.6797 41.576C12.9835 41.4953 13.295 41.6747 13.3766 41.9785ZM58.5821 29.8649L58.6239 30.0216C58.7056 30.3254 59.017 30.5048 59.3208 30.4241L60.7336 30.0453C61.0364 29.9646 61.2168 29.6522 61.1352 29.3484L61.0934 29.1918C61.0127 28.8889 60.7003 28.7085 60.3965 28.7902L58.9847 29.168C58.6809 29.2497 58.5005 29.5611 58.5821 29.8649ZM19.3954 52.4889L19.5102 52.6038C19.7324 52.8259 19.7324 53.1858 19.5102 53.4079L18.4763 54.4419C18.2541 54.6641 17.8943 54.6641 17.6721 54.4419L17.5573 54.327C17.3351 54.1048 17.3351 53.745 17.5573 53.5228L18.5912 52.4889C18.8134 52.2667 19.1732 52.2667 19.3954 52.4889ZM52.4889 19.3963L52.6038 19.5112C52.826 19.7333 53.1858 19.7333 53.408 19.5112L54.4419 18.4772C54.6641 18.2551 54.6641 17.8952 54.4419 17.6731L54.327 17.5582C54.1049 17.336 53.745 17.336 53.5229 17.5582L52.4889 18.5921C52.2668 18.8143 52.2668 19.1741 52.4889 19.3963ZM29.8646 58.5821L30.0212 58.6239C30.325 58.7056 30.5045 59.017 30.4238 59.3208L30.045 60.7336C29.9633 61.0364 29.6519 61.2168 29.3481 61.1352L29.1914 61.0934C28.8876 61.0118 28.7081 60.7003 28.7888 60.3965L29.1677 58.9838C29.2493 58.6809 29.5607 58.5005 29.8646 58.5821ZM41.9785 13.3766L42.1352 13.4184C42.439 13.5 42.7504 13.3196 42.8321 13.0168L43.2109 11.604C43.2916 11.3002 43.1121 10.9888 42.8083 10.9071L42.6517 10.8653C42.3479 10.7837 42.0364 10.9641 41.9548 11.267L41.576 12.6797C41.4953 12.9835 41.6747 13.295 41.9785 13.3766ZM18.0285 25.53L17.9469 25.6705C17.7902 25.943 17.4418 26.0361 17.1702 25.8785L13.6516 23.8476C13.3801 23.69 13.2861 23.3425 13.4437 23.071L13.5244 22.9295C13.682 22.658 14.0295 22.5649 14.302 22.7216L17.8196 24.7524C18.0921 24.91 18.1852 25.2575 18.0285 25.53Z" fill="white" fill-opacity="0.34" style="mix-blend-mode:plus-lighter"/>
<path fill-rule="evenodd" clip-rule="evenodd" d="M36.0807 15.2001H35.9183C35.6041 15.2001 35.3496 14.9456 35.3496 14.6314V10.5687C35.3496 10.2544 35.6041 10 35.9183 10H36.0807C36.3949 10 36.6494 10.2544 36.6494 10.5687V14.6314C36.6494 14.9456 36.3949 15.2001 36.0807 15.2001ZM36.0807 61.9999H35.9183C35.6041 61.9999 35.3496 61.7454 35.3496 61.4312V57.3685C35.3496 57.0543 35.6041 56.7998 35.9183 56.7998H36.0807C36.3949 56.7998 36.6494 57.0543 36.6494 57.3685V61.4312C36.6494 61.7454 36.3949 61.9999 36.0807 61.9999ZM25.529 18.0271L25.6695 17.9454C25.942 17.7888 26.0351 17.4413 25.8774 17.1688L23.8466 13.6511C23.6899 13.3786 23.3415 13.2856 23.07 13.4422L22.9294 13.5239C22.657 13.6806 22.5639 14.029 22.7206 14.3005L24.7524 17.8192C24.909 18.0907 25.2565 18.1837 25.529 18.0271ZM49.0699 58.4757L48.9294 58.5574C48.6569 58.714 48.3094 58.621 48.1528 58.3494L46.121 54.8308C45.9643 54.5593 46.0573 54.2108 46.3298 54.0542L46.4704 53.9725C46.7419 53.8159 47.0903 53.9089 47.247 54.1814L49.2778 57.6991C49.4354 57.9715 49.3424 58.319 49.0699 58.4757ZM58.4762 49.0699L58.5578 48.9294C58.7145 48.6569 58.6214 48.3094 58.3489 48.1518L54.8313 46.121C54.5588 45.9643 54.2113 46.0574 54.0537 46.3289L53.973 46.4704C53.8154 46.7419 53.9094 47.0894 54.1809 47.247L57.6995 49.2779C57.9711 49.4355 58.3195 49.3424 58.4762 49.0699ZM15.2001 35.9193V36.0817C15.2001 36.3959 14.9456 36.6504 14.6314 36.6504H10.5687C10.2544 36.6504 10 36.3959 10 36.0817V35.9193C10 35.605 10.2544 35.3506 10.5687 35.3506H14.6314C14.9456 35.3506 15.2001 35.605 15.2001 35.9193ZM62.0008 36.0817V35.9193C62.0008 35.605 61.7464 35.3506 61.4321 35.3506H57.3695C57.0552 35.3506 56.8008 35.605 56.8008 35.9193V36.0817C56.8008 36.3959 57.0552 36.6504 57.3695 36.6504H61.4321C61.7464 36.6504 62.0008 36.3959 62.0008 36.0817ZM17.9464 46.3296L18.0281 46.4701C18.1847 46.7426 18.0917 47.09 17.8201 47.2467L14.3015 49.2785C14.03 49.4352 13.6815 49.3421 13.5249 49.0696L13.4432 48.9291C13.2866 48.6576 13.3796 48.3091 13.6521 48.1525L17.1698 46.1216C17.4423 45.964 17.7897 46.0571 17.9464 46.3296ZM58.5574 23.0707L58.4757 22.9301C58.319 22.6576 57.9715 22.5646 57.6991 22.7222L54.1814 24.7531C53.9089 24.9097 53.8159 25.2582 53.9725 25.5297L54.0542 25.6702C54.2108 25.9427 54.5593 26.0357 54.8308 25.8791L58.3494 23.8473C58.621 23.6906 58.714 23.3431 58.5574 23.0707ZM25.529 53.9725L25.6696 54.0542C25.942 54.2108 26.0351 54.5593 25.8775 54.8308L23.8466 58.3494C23.689 58.621 23.3415 58.715 23.07 58.5574L22.9285 58.4767C22.657 58.319 22.5639 57.9715 22.7206 57.6991L24.7524 54.1814C24.9091 53.9089 25.2565 53.8159 25.529 53.9725ZM49.0699 13.5239L48.9294 13.4422C48.6569 13.2856 48.3094 13.3786 48.1518 13.6511L46.121 17.1688C45.9643 17.4413 46.0574 17.7888 46.3289 17.9464L46.4704 18.0271C46.7419 18.1847 47.0894 18.0907 47.247 17.8192L49.2779 14.3005C49.4355 14.029 49.3424 13.6806 49.0699 13.5239ZM30.0225 13.3766L29.8659 13.4184C29.5621 13.5 29.2507 13.3196 29.169 13.0158L28.7911 11.604C28.7095 11.3002 28.8899 10.9878 29.1927 10.9071L29.3494 10.8653C29.6532 10.7837 29.9656 10.9641 30.0463 11.267L30.4251 12.6797C30.5058 12.9835 30.3264 13.295 30.0225 13.3766ZM42.1352 58.5812L41.9785 58.6229C41.6747 58.7046 41.4953 59.016 41.576 59.3198L41.9548 60.7326C42.0355 61.0355 42.3479 61.2159 42.6517 61.1342L42.8083 61.0924C43.1112 61.0117 43.2916 60.6994 43.2099 60.3955L42.8321 58.9837C42.7504 58.6799 42.439 58.4995 42.1352 58.5812ZM19.5122 19.3963L19.3973 19.5112C19.1751 19.7334 18.8153 19.7334 18.5931 19.5112L17.5592 18.4773C17.337 18.2551 17.337 17.8953 17.5592 17.6731L17.6741 17.5582C17.8963 17.3361 18.2561 17.3361 18.4783 17.5582L19.5122 18.5922C19.7344 18.8143 19.7344 19.1742 19.5122 19.3963ZM52.6037 52.4889L52.4888 52.6038C52.2667 52.826 52.2667 53.1858 52.4888 53.408L53.5228 54.4419C53.7449 54.6641 54.1048 54.6641 54.3269 54.4419L54.4418 54.327C54.664 54.1049 54.664 53.745 54.4418 53.5229L53.4079 52.4889C53.1857 52.2668 52.8259 52.2668 52.6037 52.4889ZM13.4182 29.8654L13.3764 30.0221C13.2947 30.3259 12.9833 30.5054 12.6795 30.4247L11.2667 30.0458C10.9639 29.9642 10.7835 29.6528 10.8651 29.349L10.9069 29.1923C10.9886 28.8885 11.3 28.709 11.6038 28.7897L13.0166 29.1686C13.3194 29.2502 13.4998 29.5616 13.4182 29.8654ZM58.6239 41.9775L58.5821 42.1342C58.5005 42.438 58.6809 42.7494 58.9838 42.8311L60.3965 43.2099C60.7003 43.2906 61.0118 43.1112 61.0934 42.8074L61.1352 42.6507C61.2168 42.3469 61.0364 42.0355 60.7336 41.9538L59.3208 41.575C59.017 41.4943 58.7056 41.6737 58.6239 41.9775ZM13.3766 41.9785L13.4184 42.1352C13.5 42.439 13.3196 42.7504 13.0158 42.8321L11.604 43.2099C11.3002 43.2916 10.9878 43.1112 10.9071 42.8083L10.8653 42.6517C10.7837 42.3479 10.9641 42.0355 11.267 41.9548L12.6797 41.576C12.9835 41.4953 13.295 41.6747 13.3766 41.9785ZM58.5821 29.8649L58.6239 30.0216C58.7056 30.3254 59.017 30.5048 59.3208 30.4241L60.7336 30.0453C61.0364 29.9646 61.2168 29.6522 61.1352 29.3484L61.0934 29.1918C61.0127 28.8889 60.7003 28.7085 60.3965 28.7902L58.9847 29.168C58.6809 29.2497 58.5005 29.5611 58.5821 29.8649ZM19.3954 52.4889L19.5102 52.6038C19.7324 52.8259 19.7324 53.1858 19.5102 53.4079L18.4763 54.4419C18.2541 54.6641 17.8943 54.6641 17.6721 54.4419L17.5573 54.327C17.3351 54.1048 17.3351 53.745 17.5573 53.5228L18.5912 52.4889C18.8134 52.2667 19.1732 52.2667 19.3954 52.4889ZM52.4889 19.3963L52.6038 19.5112C52.826 19.7333 53.1858 19.7333 53.408 19.5112L54.4419 18.4772C54.6641 18.2551 54.6641 17.8952 54.4419 17.6731L54.327 17.5582C54.1049 17.336 53.745 17.336 53.5229 17.5582L52.4889 18.5921C52.2668 18.8143 52.2668 19.1741 52.4889 19.3963ZM29.8646 58.5821L30.0212 58.6239C30.325 58.7056 30.5045 59.017 30.4238 59.3208L30.045 60.7336C29.9633 61.0364 29.6519 61.2168 29.3481 61.1352L29.1914 61.0934C28.8876 61.0118 28.7081 60.7003 28.7888 60.3965L29.1677 58.9838C29.2493 58.6809 29.5607 58.5005 29.8646 58.5821ZM41.9785 13.3766L42.1352 13.4184C42.439 13.5 42.7504 13.3196 42.8321 13.0168L43.2109 11.604C43.2916 11.3002 43.1121 10.9888 42.8083 10.9071L42.6517 10.8653C42.3479 10.7837 42.0364 10.9641 41.9548 11.267L41.576 12.6797C41.4953 12.9835 41.6747 13.295 41.9785 13.3766ZM18.0285 25.53L17.9469 25.6705C17.7902 25.943 17.4418 26.0361 17.1702 25.8785L13.6516 23.8476C13.3801 23.69 13.2861 23.3425 13.4437 23.071L13.5244 22.9295C13.682 22.658 14.0295 22.5649 14.302 22.7216L17.8196 24.7524C18.0921 24.91 18.1852 25.2575 18.0285 25.53Z" fill="white" fill-opacity="0.84"/>
</g>
<path fill-rule="evenodd" clip-rule="evenodd" d="M34.6126 38.2544C34.6819 38.2935 34.7536 38.3298 34.8276 38.363C35.2614 38.5578 35.7208 38.6235 36.1626 38.5764C36.4729 38.5598 36.7796 38.4872 37.0666 38.3589C38.3737 37.7727 38.9609 36.2341 38.3756 34.926C38.3113 34.7827 38.2356 34.648 38.15 34.5226C38.1328 34.3075 38.1694 34.0892 38.2596 33.8885L43.4568 22.3054C43.7509 21.6519 43.4568 20.8816 42.8042 20.5885C42.1507 20.2954 41.3804 20.5876 41.0873 21.2411L35.89 32.8252C35.7382 33.161 35.4518 33.418 35.1008 33.53C34.3951 33.7557 33.8193 34.2661 33.5214 34.9301C33.4224 35.1509 33.3568 35.3784 33.3225 35.6068C33.1944 35.7683 33.0281 35.8985 32.8359 35.9846L13.5446 44.6262C12.8911 44.9193 12.598 45.6886 12.8911 46.3422C13.1832 46.9957 13.9535 47.2898 14.6071 46.9967L33.8983 38.3551C34.1246 38.2538 34.3723 38.2201 34.6126 38.2544ZM34.7076 35.4604C34.4145 36.1149 34.7067 36.8833 35.3612 37.1774C36.0157 37.4714 36.7841 37.1783 37.0781 36.5238C37.3712 35.8693 37.0791 35.1009 36.4246 34.8078C35.77 34.5137 35.0017 34.8059 34.7076 35.4604Z" fill="white" style="mix-blend-mode:color-dodge"/>
</g>
</g>
<defs>
<filter id="filter0_bd_1608_385" x="-40" y="-40" width="152" height="152" filterUnits="userSpaceOnUse" color-interpolation-filters="sRGB">
<feFlood flood-opacity="0" result="BackgroundImageFix"/>
<feGaussianBlur in="BackgroundImageFix" stdDeviation="20"/>
<feComposite in2="SourceAlpha" operator="in" result="effect1_backgroundBlur_1608_385"/>
<feColorMatrix in="SourceAlpha" type="matrix" values="0 0 0 0 0 0 0 0 0 0 0 0 0 0 0 0 0 0 127 0" result="hardAlpha"/>
<feOffset dy="4"/>
<feGaussianBlur stdDeviation="2"/>
<feComposite in2="hardAlpha" operator="out"/>
<feColorMatrix type="matrix" values="0 0 0 0 0 0 0 0 0 0 0 0 0 0 0 0 0 0 0.25 0"/>
<feBlend mode="normal" in2="effect1_backgroundBlur_1608_385" result="effect2_dropShadow_1608_385"/>
<feBlend mode="normal" in="SourceGraphic" in2="effect2_dropShadow_1608_385" result="shape"/>
</filter>
<filter id="filter1_b_1608_385" x="-33" y="-33" width="138" height="138" filterUnits="userSpaceOnUse" color-interpolation-filters="sRGB">
<feFlood flood-opacity="0" result="BackgroundImageFix"/>
<feGaussianBlur in="BackgroundImageFix" stdDeviation="20"/>
<feComposite in2="SourceAlpha" operator="in" result="effect1_backgroundBlur_1608_385"/>
<feBlend mode="normal" in="SourceGraphic" in2="effect1_backgroundBlur_1608_385" result="shape"/>
</filter>
<filter id="filter2_b_1608_385" x="-125.914" y="-125.914" width="323.829" height="323.828" filterUnits="userSpaceOnUse" color-interpolation-filters="sRGB">
<feFlood flood-opacity="0" result="BackgroundImageFix"/>
<feGaussianBlur in="BackgroundImageFix" stdDeviation="67.957"/>
<feComposite in2="SourceAlpha" operator="in" result="effect1_backgroundBlur_1608_385"/>
<feBlend mode="normal" in="SourceGraphic" in2="effect1_backgroundBlur_1608_385" result="shape"/>
</filter>
</defs>
</svg>
