<svg width="270" height="59" viewBox="0 0 270 59" fill="none" xmlns="http://www.w3.org/2000/svg">
<g filter="url(#filter0_d_602_360)">
<path d="M18.9619 53C15.666 53 12.8096 52.3774 10.3926 51.1323C7.97559 49.8628 6.0957 48.166 4.75293 46.042C3.43457 43.918 2.77539 41.5864 2.77539 39.0474V16.7817C2.77539 14.2183 3.43457 11.8867 4.75293 9.78711C6.0957 7.66309 7.97559 5.97852 10.3926 4.7334C12.8096 3.46387 15.666 2.8291 18.9619 2.8291H30.2412C33.5371 2.8291 36.3936 3.46387 38.8105 4.7334C41.252 5.97852 43.1318 7.66309 44.4502 9.78711C45.7686 11.8867 46.4277 14.2183 46.4277 16.7817V39.0474C46.4277 41.5864 45.7686 43.918 44.4502 46.042C43.1318 48.166 41.252 49.8628 38.8105 51.1323C36.3936 52.3774 33.5371 53 30.2412 53H18.9619ZM18.5225 36.5571L20.9395 35.9712L23.1733 33.7373L25.5903 17.5874L27.9707 33.7373L30.2412 35.9712L32.6216 36.5571L35.0386 35.9712L37.2725 33.7373L40.2021 6.85742L35.9907 6.125L33.5371 32.3823L32.5483 32.6021L31.7427 32.3091L27.3848 7.3335H23.7593L19.438 32.3091L18.5957 32.6021L17.6436 32.3823L15.1533 6.125L10.9419 6.85742L13.8716 33.7373L16.1421 35.9712L18.5225 36.5571ZM62.3213 53C59.0254 53 56.1689 52.3774 53.752 51.1323C51.335 49.8628 49.4551 48.166 48.1123 46.042C46.7939 43.918 46.1348 41.5864 46.1348 39.0474V16.7817C46.1348 14.2183 46.7939 11.8867 48.1123 9.78711C49.4551 7.66309 51.335 5.97852 53.752 4.7334C56.1689 3.46387 59.0254 2.8291 62.3213 2.8291H73.6006C76.8965 2.8291 79.7529 3.46387 82.1699 4.7334C84.6113 5.97852 86.4912 7.66309 87.8096 9.78711C89.1279 11.8867 89.7871 14.2183 89.7871 16.7817V39.0474C89.7871 41.5864 89.1279 43.918 87.8096 46.042C86.4912 48.166 84.6113 49.8628 82.1699 51.1323C79.7529 52.3774 76.8965 53 73.6006 53H62.3213ZM58.293 36.4106H62.1748V22.7876H77.4092V36.4106H81.2178V6.125H77.4092V18.9424H62.1748V6.125H58.293V36.4106ZM105.681 53C102.385 53 99.5283 52.3774 97.1113 51.1323C94.6943 49.8628 92.8145 48.166 91.4717 46.042C90.1533 43.918 89.4941 41.5864 89.4941 39.0474V16.7817C89.4941 14.2183 90.1533 11.8867 91.4717 9.78711C92.8145 7.66309 94.6943 5.97852 97.1113 4.7334C99.5283 3.46387 102.385 2.8291 105.681 2.8291H116.96C120.256 2.8291 123.112 3.46387 125.529 4.7334C127.971 5.97852 129.851 7.66309 131.169 9.78711C132.487 11.8867 133.146 14.2183 133.146 16.7817V39.0474C133.146 41.5864 132.487 43.918 131.169 46.042C129.851 48.166 127.971 49.8628 125.529 51.1323C123.112 52.3774 120.256 53 116.96 53H105.681ZM104.362 36.4106H122.783V32.5288H108.171V23.2271H120.402V19.3818H108.171V10.0068H122.27V6.125H104.362V36.4106ZM149.04 53C145.744 53 142.888 52.3774 140.471 51.1323C138.054 49.8628 136.174 48.166 134.831 46.042C133.513 43.918 132.854 41.5864 132.854 39.0474V16.7817C132.854 14.2183 133.513 11.8867 134.831 9.78711C136.174 7.66309 138.054 5.97852 140.471 4.7334C142.888 3.46387 145.744 2.8291 149.04 2.8291H160.319C163.615 2.8291 166.472 3.46387 168.889 4.7334C171.33 5.97852 173.21 7.66309 174.528 9.78711C175.847 11.8867 176.506 14.2183 176.506 16.7817V39.0474C176.506 41.5864 175.847 43.918 174.528 46.042C173.21 48.166 171.33 49.8628 168.889 51.1323C166.472 52.3774 163.615 53 160.319 53H149.04ZM144.792 36.4106H148.674V10.4097L151.53 9.93359H160.319L162.846 10.3364L163.212 12.4971V36.4106H167.131V11.9844L166.618 8.9082L164.274 6.56445L160.539 6.125H151.384L144.792 7.04053V36.4106ZM192.399 53C189.104 53 186.247 52.3774 183.83 51.1323C181.413 49.8628 179.533 48.166 178.19 46.042C176.872 43.918 176.213 41.5864 176.213 39.0474V16.7817C176.213 14.2183 176.872 11.8867 178.19 9.78711C179.533 7.66309 181.413 5.97852 183.83 4.7334C186.247 3.46387 189.104 2.8291 192.399 2.8291H203.679C206.975 2.8291 209.831 3.46387 212.248 4.7334C214.689 5.97852 216.569 7.66309 217.888 9.78711C219.206 11.8867 219.865 14.2183 219.865 16.7817V39.0474C219.865 41.5864 219.206 43.918 217.888 46.042C216.569 48.166 214.689 49.8628 212.248 51.1323C209.831 52.3774 206.975 53 203.679 53H192.399ZM197.673 30.2217H200.822V24.1792H203.935L207.561 23.6665L209.648 21.5791L210.197 18.5762V12.1309L209.648 9.12793L207.561 7.04053L203.972 6.49121H196.464L192.875 7.04053L190.788 9.12793L190.166 12.5337L193.352 12.8267C193.425 12.436 193.486 11.9844 193.535 11.4717C193.608 10.9346 193.681 10.4585 193.754 10.0435L203.862 9.64062L206.645 10.0435L207.048 12.4971V18.21L206.645 21.0664H199.211L197.673 23.0439V30.2217ZM197.307 36.0444H201.188V32.3091H197.307V36.0444ZM235.759 53C232.463 53 229.606 52.3774 227.189 51.1323C224.772 49.8628 222.893 48.166 221.55 46.042C220.231 43.918 219.572 41.5864 219.572 39.0474V16.7817C219.572 14.2183 220.231 11.8867 221.55 9.78711C222.893 7.66309 224.772 5.97852 227.189 4.7334C229.606 3.46387 232.463 2.8291 235.759 2.8291H247.038C250.334 2.8291 253.19 3.46387 255.607 4.7334C258.049 5.97852 259.929 7.66309 261.247 9.78711C262.565 11.8867 263.225 14.2183 263.225 16.7817V39.0474C263.225 41.5864 262.565 43.918 261.247 46.042C259.929 48.166 258.049 49.8628 255.607 51.1323C253.19 52.3774 250.334 53 247.038 53H235.759ZM241.032 30.2217H244.182V24.1792H247.294L250.92 23.6665L253.007 21.5791L253.557 18.5762V12.1309L253.007 9.12793L250.92 7.04053L247.331 6.49121H239.824L236.235 7.04053L234.147 9.12793L233.525 12.5337L236.711 12.8267C236.784 12.436 236.845 11.9844 236.894 11.4717C236.967 10.9346 237.041 10.4585 237.114 10.0435L247.221 9.64062L250.004 10.0435L250.407 12.4971V18.21L250.004 21.0664H242.57L241.032 23.0439V30.2217ZM240.666 36.0444H244.548V32.3091H240.666V36.0444Z" fill="#FAF7FD"/>
</g>
<defs>
<filter id="filter0_d_602_360" x="0.775391" y="0.829102" width="268.449" height="58.1709" filterUnits="userSpaceOnUse" color-interpolation-filters="sRGB">
<feFlood flood-opacity="0" result="BackgroundImageFix"/>
<feColorMatrix in="SourceAlpha" type="matrix" values="0 0 0 0 0 0 0 0 0 0 0 0 0 0 0 0 0 0 127 0" result="hardAlpha"/>
<feOffset dx="2" dy="2"/>
<feGaussianBlur stdDeviation="2"/>
<feComposite in2="hardAlpha" operator="out"/>
<feColorMatrix type="matrix" values="0 0 0 0 0 0 0 0 0 0 0 0 0 0 0 0 0 0 0.25 0"/>
<feBlend mode="normal" in2="BackgroundImageFix" result="effect1_dropShadow_602_360"/>
<feBlend mode="normal" in="SourceGraphic" in2="effect1_dropShadow_602_360" result="shape"/>
</filter>
</defs>
</svg>
